# xmcd CD database file
# Copyright (C) 1993-1998 Ti Kan
# 
# Track frame offsets:
#     150
#     16052
#     38797
#     58700
#     77967
#     98705
#     114555
#     134407
#     149897
#     167920
#     183920
#     198867
#     220827
#     235767
#     249430
# 
# Disc length: 3584 seconds
# 
# Revision: 1
# Processed by: cddbd v1.4b41PL1 Copyright (c) Steve Scherf et al.
# Submitted via: DiscPlay 4.0.4
# 
DISCID=d10dfe0f
DTITLE=Buddy England - Fate's A Fiddler, Life's A Dance
DYEAR=1900
DGENRE=
TTITLE0=What Kind Of Fool Do You Think I Am
TTITLE1=Country Lady
TTITLE2=Fate's A Fiddler Lifes A Dance
TTITLE3=When You Love Somebody
TTITLE4=Passion And Tears
TTITLE5=Kentucky Poorboy
TTITLE6=Winter At SouthEnd
TTITLE7=What They Don't Know
TTITLE8=Wainting For The Sun To Shine
TTITLE9=Cowboys Don't Wear Sweaters
TTITLE10=We Blamed It On The Moon
TTITLE11=You Can't Get By By Yourself
TTITLE12=Shoulder To Shoulder
TTITLE13=In This Life
TTITLE14=Beachport Girls
EXTD=
EXTT0=
EXTT1=
EXTT2=
EXTT3=
EXTT4=
EXTT5=
EXTT6=
EXTT7=
EXTT8=
EXTT9=
EXTT10=
EXTT11=
EXTT12=
EXTT13=
EXTT14=
PLAYORDER=
